<svg width="157" height="32" viewBox="0 0 157 32" fill="none" xmlns="http://www.w3.org/2000/svg">
<g clip-path="url(#clip0_5271_2816)">
<path d="M9.35602 15.8798C9.28431 17.1595 10.2558 18.2597 11.5209 18.3329C11.5655 18.3352 11.6097 18.3367 11.6532 18.3367C12.8702 18.3367 13.8779 17.3737 13.9472 16.1436C14.0192 14.8641 13.0483 13.7638 11.7822 13.6911C10.5089 13.616 9.42812 14.6058 9.35602 15.8798Z" fill="white"/>
<path d="M0.785133 15.286C0.375676 15.2623 0.0241205 15.5791 0.00138688 15.9935C-0.0223509 16.4074 0.290898 16.763 0.700478 16.7865C1.11031 16.81 1.46174 16.493 1.48523 16.0791C1.50796 15.6642 1.19497 15.3095 0.785133 15.286Z" fill="white"/>
<path d="M9.21017 2.39284C9.57641 2.2063 9.72425 1.75437 9.53949 1.38357C9.35435 1.01341 8.90785 0.863949 8.54084 1.051C8.17472 1.23754 8.02727 1.68948 8.21202 2.05989C8.39678 2.43068 8.84329 2.57938 9.21017 2.39284Z" fill="white"/>
<path d="M11.5426 6.50497C12.1094 6.21659 12.3371 5.5183 12.0516 4.94573C11.7661 4.37316 11.0753 4.14269 10.5089 4.43107C9.94255 4.71957 9.71446 5.41786 10.0002 5.99056C10.2857 6.56338 10.9761 6.79398 11.5426 6.50497Z" fill="white"/>
<path d="M3.69443 9.33245C4.13152 9.62223 4.71782 9.49919 5.00444 9.05715C5.29068 8.61575 5.16885 8.02287 4.73201 7.73347C4.29467 7.44369 3.70875 7.567 3.42213 8.00877C3.13551 8.4503 3.25772 9.04319 3.69443 9.33245Z" fill="white"/>
<path d="M5.09186 14.8674C4.45884 14.8308 3.91624 15.3204 3.8797 15.9607C3.84365 16.6014 4.32809 17.1496 4.96124 17.1865C5.59476 17.2228 6.13786 16.7332 6.17366 16.0928C6.20957 15.4522 5.72539 14.9035 5.09186 14.8674Z" fill="white"/>
<path d="M3.81983 22.6702C3.35348 22.9077 3.16596 23.4831 3.4012 23.9546C3.63608 24.4263 4.20517 24.6156 4.67127 24.3782C5.13775 24.1401 5.32552 23.5653 5.09015 23.0933C4.85528 22.6221 4.28668 22.4321 3.81983 22.6702Z" fill="white"/>
<path d="M8.28165 12.4686C8.90588 12.8825 9.74375 12.7064 10.1526 12.075C10.562 11.4446 10.3878 10.5975 9.76372 10.1841C9.13962 9.7699 8.30212 9.94629 7.89291 10.5768C7.48333 11.2081 7.65766 12.0549 8.28165 12.4686Z" fill="white"/>
<path d="M22.4394 6.41261C22.9699 6.76423 23.6818 6.61439 24.0296 6.07788C24.3777 5.542 24.2299 4.82213 23.6993 4.47013C23.1691 4.11826 22.4567 4.26772 22.1089 4.80461C21.7609 5.34048 21.9092 6.06074 22.4394 6.41261Z" fill="white"/>
<path d="M24.796 2.31406C25.1387 2.54173 25.5999 2.44459 25.825 2.0978C26.0497 1.75063 25.954 1.28498 25.6109 1.05729C25.2681 0.829479 24.8073 0.926748 24.5817 1.27342C24.3565 1.62072 24.4527 2.08624 24.796 2.31406Z" fill="white"/>
<path d="M22.6202 13.6673C21.3469 13.5925 20.2654 14.5821 20.1941 15.8556C20.1221 17.1355 21.0931 18.2358 22.3585 18.3087C22.4026 18.3111 22.4471 18.3124 22.4909 18.3124C23.7079 18.3124 24.7154 17.3495 24.7845 16.1203C24.8195 15.4999 24.6133 14.9032 24.2045 14.4405C23.7963 13.9768 23.2331 13.7024 22.6202 13.6673Z" fill="white"/>
<path d="M12.2979 12.3077C12.6908 13.0961 13.4779 13.5866 14.3527 13.5866C14.7083 13.5866 15.0658 13.5002 15.3856 13.3375C16.5177 12.7606 16.9746 11.36 16.4042 10.2154C16.0108 9.4263 15.2239 8.93652 14.3494 8.93652C13.9938 8.93652 13.6363 9.02287 13.3165 9.18516C12.1845 9.76204 11.7275 11.1624 12.2979 12.3077Z" fill="white"/>
<path d="M30.3211 9.32996C30.7872 9.09224 30.9753 8.51726 30.7401 8.04514C30.5047 7.57339 29.9361 7.38406 29.4696 7.62177C29.003 7.85923 28.8153 8.43447 29.0506 8.90609C29.286 9.37758 29.8542 9.56716 30.3211 9.32996Z" fill="white"/>
<path d="M24.4901 10.0705C23.8231 10.4099 23.5555 11.2315 23.8911 11.9053C24.2271 12.5792 25.0395 12.8498 25.706 12.5106C26.3723 12.1709 26.6406 11.3493 26.305 10.6754C25.969 10.0018 25.1563 9.73054 24.4901 10.0705Z" fill="white"/>
<path d="M16.9843 1.96365C17.5058 1.99362 17.9527 1.5907 17.9825 1.06295C18.012 0.535839 17.6133 0.0837837 17.0918 0.0539365C16.5701 0.0239654 16.123 0.427146 16.0933 0.954637C16.0639 1.48188 16.4625 1.93369 16.9843 1.96365Z" fill="white"/>
<path d="M16.9735 7.98087C17.7186 8.02367 18.3571 7.44754 18.3996 6.69414C18.4419 5.94075 17.8721 5.29478 17.1266 5.25224C16.3819 5.20945 15.7435 5.78532 15.7009 6.53897C15.6586 7.29211 16.2285 7.9377 16.9735 7.98087Z" fill="white"/>
<path d="M9.65094 21.9297C10.3178 21.59 10.5858 20.7684 10.2503 20.0948C9.9142 19.4211 9.10144 19.1496 8.43526 19.4897C7.76883 19.8291 7.50067 20.6501 7.8364 21.3242C8.17238 21.9979 8.98463 22.2689 9.65094 21.9297Z" fill="white"/>
<path d="M17.8472 9.97448C17.1519 11.0463 17.4486 12.49 18.5087 13.193C18.8846 13.4423 19.3198 13.5741 19.7677 13.5741C20.5468 13.5741 21.2655 13.1817 21.6925 12.5242C22.3875 11.4521 22.0907 10.0079 21.0306 9.30565C20.6547 9.05638 20.2196 8.92432 19.7717 8.92432C18.9928 8.92432 18.2737 9.31695 17.8472 9.97448Z" fill="white"/>
<path d="M21.8437 19.6926C21.4505 18.9032 20.6629 18.4133 19.7889 18.4133C19.4329 18.4133 19.0754 18.499 18.7556 18.6623C18.2073 18.9417 17.7996 19.4203 17.6073 20.0104C17.4146 20.5997 17.4607 21.2296 17.7375 21.7845C18.1303 22.5732 18.9176 23.0634 19.7914 23.0634C20.1477 23.0634 20.5048 22.9774 20.8252 22.8143C21.9573 22.2378 22.4142 20.8369 21.8437 19.6926Z" fill="white"/>
<path d="M25.8593 19.5311C25.2357 19.1177 24.3974 19.2939 23.9882 19.9243C23.5789 20.5553 23.7536 21.4026 24.3773 21.8162C25.0015 22.2297 25.8389 22.054 26.2484 21.4226C26.6577 20.792 26.4839 19.9448 25.8593 19.5311Z" fill="white"/>
<path d="M30.2612 16.0393C30.2976 15.3989 29.8129 14.8499 29.1792 14.8133C28.5461 14.777 28.0035 15.2664 27.9672 15.9074C27.9309 16.5474 28.4154 17.0962 29.0492 17.1328C29.6822 17.1694 30.2254 16.6791 30.2612 16.0393Z" fill="white"/>
<path d="M33.4407 15.2132C33.0304 15.19 32.6797 15.5064 32.656 15.9209C32.6328 16.3351 32.946 16.6906 33.3562 16.7139C33.7658 16.7374 34.117 16.4207 34.1402 16.0063C34.1639 15.5918 33.8506 15.2366 33.4407 15.2132Z" fill="white"/>
<path d="M30.4468 22.667C30.0096 22.3773 29.4229 22.5007 29.1372 22.9423C28.8506 23.3839 28.9724 23.977 29.4094 24.2666C29.8461 24.5563 30.4321 24.4331 30.7194 23.9911C31.0052 23.5491 30.8839 22.9568 30.4468 22.667Z" fill="white"/>
<path d="M9.34552 29.6859C9.00238 29.4581 8.54156 29.5551 8.31648 29.902C8.09128 30.2493 8.18699 30.7148 8.53037 30.9425C8.87351 31.1703 9.33434 31.0729 9.55904 30.7263C9.78449 30.3788 9.68866 29.9133 9.34552 29.6859Z" fill="white"/>
<path d="M24.9308 29.6071C24.5647 29.7932 24.4172 30.245 24.6021 30.6161C24.7865 30.9863 25.2333 31.1353 25.6003 30.9484C25.9664 30.7616 26.1143 30.3102 25.9295 29.9398C25.7448 29.5692 25.2977 29.4203 24.9308 29.6071Z" fill="white"/>
<path d="M16.2944 22.0249C16.631 21.5057 16.7479 20.885 16.6228 20.2773C16.4976 19.6697 16.146 19.1473 15.6325 18.8069C15.2565 18.5576 14.821 18.4255 14.3729 18.4255C13.5946 18.4255 12.8752 18.8179 12.4486 19.4758C12.1119 19.9951 11.9952 20.6159 12.1207 21.2236C12.2454 21.8313 12.5973 22.3537 13.1108 22.6941C13.4868 22.9434 13.922 23.0749 14.3699 23.0749C15.1485 23.0751 15.8677 22.6826 16.2944 22.0249Z" fill="white"/>
<path d="M11.7016 25.5872C11.1712 25.2354 10.4594 25.3852 10.1114 25.9213C9.76332 26.4578 9.91128 27.1775 10.4418 27.5295C10.9723 27.8811 11.6846 27.7315 12.0324 27.1951C12.3806 26.6585 12.2319 25.9389 11.7016 25.5872Z" fill="white"/>
<path d="M17.0599 30.0359C16.5384 30.0058 16.0914 30.4091 16.0616 30.9363C16.0319 31.4641 16.4304 31.9156 16.9523 31.946C17.4737 31.9757 17.9211 31.5725 17.9505 31.045C17.9799 30.5178 17.5814 30.0656 17.0599 30.0359Z" fill="white"/>
<path d="M17.0704 24.0189C16.3257 23.9764 15.6868 24.552 15.6445 25.3054C15.6022 26.0587 16.1717 26.7045 16.9169 26.7471C17.6624 26.7902 18.3009 26.214 18.3429 25.4607C18.3858 24.7073 17.8158 24.0616 17.0704 24.0189Z" fill="white"/>
<path d="M22.5982 25.4943C22.0321 25.7833 21.8042 26.4811 22.09 27.0542C22.375 27.6272 23.0658 27.8569 23.6324 27.5684C24.1991 27.2801 24.4265 26.5818 24.1413 26.0089C23.8558 25.4361 23.1654 25.2058 22.5982 25.4943Z" fill="white"/>
<path d="M47.9617 10.5092C50.1872 10.5092 51.7456 11.7468 51.7456 14.0422H54.6614C54.6614 10.0139 51.7231 8.07837 47.9171 8.07837C43.2428 8.07837 40.5271 10.6441 40.5271 16.0674C40.5271 21.6262 43.2428 24.0565 47.9171 24.0565C51.768 24.0565 54.6614 22.1661 54.6614 18.1378H51.8568C51.8568 20.3882 50.321 21.6262 47.9617 21.6262C44.8675 21.6262 43.4433 19.893 43.4433 16.2926V15.8424C43.4433 12.3095 44.8899 10.5092 47.9617 10.5092Z" fill="white"/>
<path d="M62.3697 8.34863L56.4263 23.7865H59.3646L60.5886 20.4335H67.5784L68.8245 23.7865H71.8963L65.9533 8.34863H62.3697ZM61.4792 18.003L63.0375 13.772C63.349 12.9395 63.9055 11.1389 64.0168 10.8241H64.1281C64.239 11.139 64.796 12.962 65.1074 13.772L66.6653 18.003H61.4792Z" fill="white"/>
<path d="M87.7932 13.0293C87.7932 10.1715 86.1686 8.34851 82.8074 8.34851H74.7499V23.7864H77.599V17.8225H82.34L85.2333 23.7864H88.3501L85.0778 17.3728C86.8811 16.6525 87.7932 15.1225 87.7932 13.0293ZM82.5848 15.3922H77.599V10.8016H82.5848C84.1206 10.8016 84.922 11.6341 84.922 13.0293C84.922 14.4924 84.0539 15.3922 82.5848 15.3922Z" fill="white"/>
<path d="M97.7897 8.34863H91.6908V23.7865H97.7897C102.397 23.7865 105.202 21.3561 105.202 16.0676C105.202 10.7791 102.397 8.34863 97.7897 8.34863ZM102.286 16.2925C102.264 19.6683 100.683 21.3333 97.7897 21.3333H94.5399V10.8017H97.7897C100.683 10.8017 102.286 12.4671 102.286 15.8425V16.2925Z" fill="white"/>
<path d="M112.661 8.34863L106.718 23.7865H109.655L110.88 20.4335H117.869L119.116 23.7865H122.188L116.244 8.34863H112.661ZM111.77 18.003L113.328 13.772C113.64 12.9395 114.196 11.1389 114.308 10.8241H114.419C114.53 11.139 115.087 12.962 115.399 13.772L116.957 18.003H111.77Z" fill="white"/>
<path d="M135.213 17.5301C135.213 17.8227 135.257 18.6104 135.257 18.7457L135.147 18.7904C135.08 18.7006 134.635 17.9128 134.389 17.5528L127.756 8.34851H125.041V23.7864H127.779V14.5371C127.779 14.1547 127.734 13.4121 127.734 13.2996L127.846 13.2322C127.912 13.322 128.246 13.9749 128.602 14.4925L135.28 23.7866H137.951V8.34863H135.213L135.213 17.5301Z" fill="white"/>
<path d="M149.298 8.07849C144.513 8.07849 141.619 10.6442 141.619 16.0676C141.619 21.4909 144.513 24.0566 149.298 24.0566C154.084 24.0566 157 21.4909 157 16.0676C157 10.6442 154.084 8.07849 149.298 8.07849ZM154.084 16.3149C154.084 19.8484 152.415 21.6262 149.299 21.6262C146.205 21.6262 144.535 19.8483 144.535 16.3149V15.8424C144.535 12.3095 146.227 10.5092 149.299 10.5092C152.392 10.5092 154.084 12.3095 154.084 15.8424V16.3149Z" fill="white"/>
</g>
<defs>
<clipPath id="clip0_5271_2816">
<rect width="157" height="32" fill="white"/>
</clipPath>
</defs>
</svg>
