<svg width="32" height="32" viewBox="0 0 32 32" fill="none" xmlns="http://www.w3.org/2000/svg">
<g clip-path="url(#clip0_5272_4529)">
<path d="M16.0001 0.762329C12.9863 0.762329 10.0401 1.65603 7.53423 3.33041C5.02834 5.0048 3.07524 7.38466 1.9219 10.1691C0.768565 12.9534 0.466801 16.0173 1.05477 18.9732C1.64273 21.9291 3.09401 24.6443 5.2251 26.7754C7.35618 28.9065 10.0714 30.3578 13.0273 30.9458C15.9832 31.5337 19.0471 31.2319 21.8314 30.0786C24.6159 28.9252 26.9956 26.9722 28.67 24.4662C30.3444 21.9604 31.2382 19.0142 31.2382 16.0004C31.2339 11.9604 29.6271 8.08694 26.7703 5.23018C23.9136 2.3734 20.0401 0.766595 16.0001 0.762329ZM12.1363 21.8612H19.8638C19.077 24.5484 17.7583 26.9703 16.0001 28.8781C14.2418 26.9703 12.9232 24.5484 12.1363 21.8612ZM11.6044 19.5169C11.2157 17.1887 11.2157 14.8122 11.6044 12.4839H20.3956C20.7844 14.8122 20.7844 17.1887 20.3956 19.5169H11.6044ZM3.10629 16.0004C3.10527 14.8114 3.26948 13.6278 3.59421 12.4839H9.22936C8.87967 14.8153 8.87967 17.1857 9.22936 19.5169H3.59421C3.26948 18.373 3.10527 17.1895 3.10629 16.0004ZM19.8638 10.1396H12.1363C12.9232 7.45244 14.2418 5.03046 16.0001 3.12277C17.7583 5.03046 19.077 7.45244 19.8638 10.1396ZM22.7707 12.4839H28.4059C29.0564 14.7831 29.0564 17.2178 28.4059 19.5169H22.7707C23.1204 17.1857 23.1204 14.8153 22.7707 12.4839ZM27.4828 10.1396H22.2916C21.6935 7.78579 20.6889 5.55448 19.3232 3.54621C21.068 4.0151 22.6953 4.84397 24.1007 5.97952C25.5059 7.11506 26.658 8.53213 27.4828 10.1396ZM12.677 3.54621C11.3113 5.55448 10.3067 7.78579 9.70849 10.1396H4.51728C5.34208 8.53213 6.49417 7.11506 7.89946 5.97952C9.30477 4.84397 10.9321 4.0151 12.677 3.54621ZM4.51728 21.8612H9.70849C10.3067 24.215 11.3113 26.4463 12.677 28.4547C10.9321 27.9858 9.30477 27.1569 7.89946 26.0213C6.49417 24.8858 5.34208 23.4687 4.51728 21.8612ZM19.3232 28.4547C20.6889 26.4463 21.6935 24.215 22.2916 21.8612H27.4828C26.658 23.4687 25.5059 24.8858 24.1007 26.0213C22.6953 27.1569 21.068 27.9858 19.3232 28.4547Z" fill="#999999"/>
<rect x="22" y="23" width="9" height="9" rx="4.5" fill="#999999"/>
<path d="M26.5 25V30M29 27.5H24" stroke="white" stroke-width="1.3" stroke-linecap="round" stroke-linejoin="round"/>
</g>
<defs>
<clipPath id="clip0_5272_4529">
<rect width="32" height="32" fill="white"/>
</clipPath>
</defs>
</svg>
