<svg width="24" height="26" viewBox="0 0 24 26" fill="none" xmlns="http://www.w3.org/2000/svg">
<path d="M6.18798 13.0103C6.16209 15.5354 6.56527 16.8986 7.29549 17.6694C8.01325 18.4271 9.28355 18.8572 11.6843 18.8572C14.0845 18.8572 15.34 18.4272 16.0511 17.6718C16.779 16.8984 17.1805 15.5315 17.1805 13C17.1805 10.4686 16.779 9.10165 16.0511 8.32827C15.34 7.57284 14.0845 7.14289 11.6843 7.14289C9.28453 7.14289 8.04382 7.57267 7.33951 8.32588C6.61388 9.10191 6.21401 10.4725 6.18798 13.0103Z" stroke="white" stroke-width="2" stroke-linecap="round" stroke-linejoin="round"/>
<path d="M12.6842 1.85718C12.6842 1.30489 12.2365 0.857178 11.6842 0.857178C11.1319 0.857178 10.6842 1.30489 10.6842 1.85718H12.6842ZM10.6842 3.57146C10.6842 4.12375 11.1319 4.57146 11.6842 4.57146C12.2365 4.57146 12.6842 4.12375 12.6842 3.57146H10.6842ZM10.6842 1.85718V3.57146H12.6842V1.85718H10.6842Z" fill="white"/>
<path d="M12.6842 22.4286C12.6842 21.8763 12.2365 21.4286 11.6842 21.4286C11.1319 21.4286 10.6842 21.8763 10.6842 22.4286H12.6842ZM10.6842 24.1429C10.6842 24.6952 11.1319 25.1429 11.6842 25.1429C12.2365 25.1429 12.6842 24.6952 12.6842 24.1429H10.6842ZM10.6842 22.4286V24.1429H12.6842V22.4286H10.6842Z" fill="white"/>
<path d="M22.2406 14C22.7929 14 23.2406 13.5523 23.2406 13C23.2406 12.4477 22.7929 12 22.2406 12L22.2406 14ZM20.6165 12C20.0643 12 19.6165 12.4477 19.6165 13C19.6165 13.5523 20.0643 14 20.6165 14L20.6165 12ZM22.2406 12L20.6165 12L20.6165 14L22.2406 14L22.2406 12Z" fill="white"/>
<path d="M2.75189 14C3.30418 14 3.75189 13.5523 3.75189 13C3.75189 12.4477 3.30418 12 2.75189 12L2.75189 14ZM1.12783 12C0.575547 12 0.127832 12.4477 0.127832 13C0.127832 13.5523 0.575547 14 1.12783 14L1.12783 12ZM2.75189 12L1.12783 12L1.12783 14L2.75189 14L2.75189 12Z" fill="white"/>
<path d="M4.25165 3.70264C3.87182 3.3017 3.25599 3.3017 2.87616 3.70264C2.49633 4.10357 2.49633 4.75361 2.87616 5.15454L4.25165 3.70264ZM4.02454 6.36672C4.40437 6.76766 5.0202 6.76766 5.40003 6.36672C5.77986 5.96579 5.77986 5.31575 5.40003 4.91482L4.02454 6.36672ZM2.87616 5.15454L4.02454 6.36672L5.40003 4.91482L4.25165 3.70264L2.87616 5.15454Z" fill="white"/>
<path d="M4.25165 22.6522C3.87182 23.0532 3.25599 23.0532 2.87616 22.6522C2.49633 22.2513 2.49633 21.6012 2.87616 21.2003L4.25165 22.6522ZM4.02454 19.9881C4.40437 19.5872 5.0202 19.5872 5.40003 19.9881C5.77986 20.3891 5.77986 21.0391 5.40003 21.44L4.02454 19.9881ZM2.87616 21.2003L4.02454 19.9881L5.40003 21.44L4.25165 22.6522L2.87616 21.2003Z" fill="white"/>
<path d="M19.453 3.70264C19.8328 3.3017 20.4487 3.3017 20.8285 3.70264C21.2083 4.10357 21.2083 4.75361 20.8285 5.15454L19.453 3.70264ZM19.6801 6.36672C19.3003 6.76766 18.6844 6.76766 18.3046 6.36672C17.9248 5.96579 17.9248 5.31575 18.3046 4.91482L19.6801 6.36672ZM20.8285 5.15454L19.6801 6.36672L18.3046 4.91482L19.453 3.70264L20.8285 5.15454Z" fill="white"/>
<path d="M19.453 22.6522C19.8328 23.0532 20.4487 23.0532 20.8285 22.6522C21.2083 22.2513 21.2083 21.6012 20.8285 21.2003L19.453 22.6522ZM19.6801 19.9881C19.3003 19.5872 18.6844 19.5872 18.3046 19.9881C17.9248 20.3891 17.9248 21.0391 18.3046 21.44L19.6801 19.9881ZM20.8285 21.2003L19.6801 19.9881L18.3046 21.44L19.453 22.6522L20.8285 21.2003Z" fill="white"/>
</svg>
