<svg width="36" height="36" viewBox="0 0 36 36" fill="none" xmlns="http://www.w3.org/2000/svg">
<g filter="url(#filter0_i_5377_34)">
<rect width="36" height="36" rx="18" fill="#323236"/>
<g clip-path="url(#clip0_5377_34)">
<path d="M16.325 10.317C16.751 8.561 19.249 8.561 19.675 10.317C19.7389 10.5808 19.8642 10.8258 20.0407 11.032C20.2172 11.2382 20.4399 11.3999 20.6907 11.5037C20.9414 11.6076 21.2132 11.6509 21.4838 11.6299C21.7544 11.6089 22.0162 11.5243 22.248 11.383C23.791 10.443 25.558 12.209 24.618 13.753C24.4769 13.9847 24.3924 14.2463 24.3715 14.5168C24.3506 14.7872 24.3938 15.0588 24.4975 15.3094C24.6013 15.56 24.7627 15.7826 24.9687 15.9591C25.1747 16.1355 25.4194 16.2609 25.683 16.325C27.439 16.751 27.439 19.249 25.683 19.675C25.4192 19.7389 25.1742 19.8642 24.968 20.0407C24.7618 20.2172 24.6001 20.4399 24.4963 20.6907C24.3924 20.9414 24.3491 21.2132 24.3701 21.4838C24.3911 21.7544 24.4757 22.0162 24.617 22.248C25.557 23.791 23.791 25.558 22.247 24.618C22.0153 24.4769 21.7537 24.3924 21.4832 24.3715C21.2128 24.3506 20.9412 24.3938 20.6906 24.4975C20.44 24.6013 20.2174 24.7627 20.0409 24.9687C19.8645 25.1747 19.7391 25.4194 19.675 25.683C19.249 27.439 16.751 27.439 16.325 25.683C16.2611 25.4192 16.1358 25.1742 15.9593 24.968C15.7828 24.7618 15.5601 24.6001 15.3093 24.4963C15.0586 24.3924 14.7868 24.3491 14.5162 24.3701C14.2456 24.3911 13.9838 24.4757 13.752 24.617C12.209 25.557 10.442 23.791 11.382 22.247C11.5231 22.0153 11.6076 21.7537 11.6285 21.4832C11.6494 21.2128 11.6062 20.9412 11.5025 20.6906C11.3987 20.44 11.2373 20.2174 11.0313 20.0409C10.8253 19.8645 10.5806 19.7391 10.317 19.675C8.561 19.249 8.561 16.751 10.317 16.325C10.5808 16.2611 10.8258 16.1358 11.032 15.9593C11.2382 15.7828 11.3999 15.5601 11.5037 15.3093C11.6076 15.0586 11.6509 14.7868 11.6299 14.5162C11.6089 14.2456 11.5243 13.9838 11.383 13.752C10.443 12.209 12.209 10.442 13.753 11.382C14.753 11.99 16.049 11.452 16.325 10.317Z" stroke="#FAFAFA" stroke-width="1.5" stroke-linecap="round" stroke-linejoin="round"/>
<path d="M15 18C15 18.7956 15.3161 19.5587 15.8787 20.1213C16.4413 20.6839 17.2044 21 18 21C18.7956 21 19.5587 20.6839 20.1213 20.1213C20.6839 19.5587 21 18.7956 21 18C21 17.2044 20.6839 16.4413 20.1213 15.8787C19.5587 15.3161 18.7956 15 18 15C17.2044 15 16.4413 15.3161 15.8787 15.8787C15.3161 16.4413 15 17.2044 15 18Z" stroke="#FAFAFA" stroke-width="1.5" stroke-linecap="round" stroke-linejoin="round"/>
</g>
</g>
<defs>
<filter id="filter0_i_5377_34" x="0" y="0" width="37" height="37" filterUnits="userSpaceOnUse" color-interpolation-filters="sRGB">
<feFlood flood-opacity="0" result="BackgroundImageFix"/>
<feBlend mode="normal" in="SourceGraphic" in2="BackgroundImageFix" result="shape"/>
<feColorMatrix in="SourceAlpha" type="matrix" values="0 0 0 0 0 0 0 0 0 0 0 0 0 0 0 0 0 0 127 0" result="hardAlpha"/>
<feOffset dx="1" dy="1"/>
<feGaussianBlur stdDeviation="1"/>
<feComposite in2="hardAlpha" operator="arithmetic" k2="-1" k3="1"/>
<feColorMatrix type="matrix" values="0 0 0 0 0.988235 0 0 0 0 0.988235 0 0 0 0 0.988235 0 0 0 0.12 0"/>
<feBlend mode="normal" in2="shape" result="effect1_innerShadow_5377_34"/>
</filter>
<clipPath id="clip0_5377_34">
<rect width="24" height="24" fill="white" transform="translate(6 6)"/>
</clipPath>
</defs>
</svg>
