<svg width="42" height="42" viewBox="0 0 42 42" fill="none" xmlns="http://www.w3.org/2000/svg">
<path d="M26.6704 39.8125H15.3304C12.0229 39.8125 9.60792 38.43 8.68042 36.05C7.71792 33.565 8.61042 30.485 10.9204 28.4025L19.0404 21L10.9204 13.5975C8.61042 11.515 7.71792 8.435 8.68042 5.95C9.60792 3.5525 12.0229 2.1875 15.3304 2.1875H26.6704C29.9779 2.1875 32.3929 3.57 33.3204 5.95C34.2829 8.435 33.3904 11.515 31.0804 13.5975L22.9604 21L31.0979 28.4025C33.3904 30.485 34.3004 33.565 33.3379 36.05C32.3929 38.43 29.9779 39.8125 26.6704 39.8125ZM21.0004 22.7675L12.6879 30.3275C11.2179 31.675 10.5704 33.635 11.1304 35.0875C11.6554 36.435 13.1429 37.1875 15.3304 37.1875H26.6704C28.8579 37.1875 30.3454 36.4525 30.8704 35.0875C31.4304 33.635 30.8004 31.675 29.3129 30.3275L21.0004 22.7675ZM15.3304 4.8125C13.1429 4.8125 11.6554 5.5475 11.1304 6.9125C10.5704 8.365 11.2004 10.325 12.6879 11.6725L21.0004 19.2325L29.3129 11.6725C30.7829 10.325 31.4304 8.365 30.8704 6.9125C30.3454 5.565 28.8579 4.8125 26.6704 4.8125H15.3304Z" fill="#FFC021"/>
<path d="M21.0004 22.7675L12.6879 30.3275C11.2179 31.675 10.5704 33.635 11.1304 35.0875C11.6554 36.435 13.1429 37.1875 15.3304 37.1875H26.6704C28.8579 37.1875 30.3454 36.4525 30.8704 35.0875C31.4304 33.635 30.8004 31.675 29.3129 30.3275L21.0004 22.7675Z" fill="#FFC021"/>
<path d="M24.0662 31.2719H17.9856C17.3508 31.2719 16.8496 30.754 16.8496 30.1359C16.8496 29.5011 17.3675 29 17.9856 29H24.0662C24.701 29 25.2021 29.5179 25.2021 30.1359C25.2021 30.754 24.6843 31.2719 24.0662 31.2719Z" fill="#0E0E12"/>
</svg>
