<svg width="32" height="32" viewBox="0 0 32 32" fill="none" xmlns="http://www.w3.org/2000/svg">
<rect width="32" height="32" rx="16" fill="#E9ECF1"/>
<path d="M18.2415 24.9583C17.8748 24.9583 17.4915 24.85 17.0998 24.6416L13.8248 22.8166C13.6665 22.7333 13.3248 22.7333 13.1665 22.8166L9.89983 24.6416C9.1915 25.0333 8.46649 25.0666 7.91649 24.7416C7.35816 24.4166 7.0415 23.7666 7.0415 22.9666V13.5C7.0415 11.725 8.48316 10.2833 10.2582 10.2833H16.7415C18.5165 10.2833 19.9582 11.725 19.9582 13.5V22.9666C19.9582 23.7666 19.6415 24.4166 19.0832 24.7416C18.8332 24.8833 18.5498 24.9583 18.2415 24.9583ZM13.4998 21.5C13.8332 21.5 14.1582 21.575 14.4332 21.725L17.7082 23.55C18.0082 23.7166 18.2832 23.7583 18.4498 23.6583C18.6082 23.5666 18.7082 23.3 18.7082 22.9583V13.4916C18.7082 12.4083 17.8248 11.525 16.7415 11.525H10.2582C9.17482 11.525 8.2915 12.4083 8.2915 13.4916V22.9583C8.2915 23.3 8.3915 23.5666 8.54984 23.6583C8.70817 23.75 8.99151 23.7083 9.29151 23.5416L12.5665 21.7166C12.8332 21.575 13.1665 21.5 13.4998 21.5Z" fill="#1B1B1C"/>
<path d="M23.2415 21.725C22.8748 21.725 22.4915 21.6167 22.0998 21.4084L19.0248 19.6917C18.8248 19.5834 18.7082 19.375 18.7082 19.15V13.5C18.7082 12.4167 17.8249 11.5334 16.7415 11.5334H12.6665C12.3248 11.5334 12.0415 11.2501 12.0415 10.9084V10.2667C12.0415 8.4917 13.4832 7.05005 15.2582 7.05005H21.7415C23.5165 7.05005 24.9582 8.4917 24.9582 10.2667V19.7334C24.9582 20.5334 24.6415 21.1834 24.0832 21.5084C23.8332 21.65 23.5498 21.725 23.2415 21.725ZM19.9582 18.775L22.7082 20.3167C23.0082 20.4834 23.2832 20.525 23.4498 20.425C23.6082 20.3334 23.7082 20.0667 23.7082 19.725V10.2584C23.7082 9.17503 22.8249 8.29171 21.7415 8.29171H15.2582C14.1748 8.29171 13.2915 9.17503 13.2915 10.2584V10.275H16.7415C18.5165 10.275 19.9582 11.7167 19.9582 13.4917V18.775Z" fill="#1B1B1C"/>
<path d="M15.1668 16.625H11.8335C11.4918 16.625 11.2085 16.3417 11.2085 16C11.2085 15.6583 11.4918 15.375 11.8335 15.375H15.1668C15.5085 15.375 15.7918 15.6583 15.7918 16C15.7918 16.3417 15.5085 16.625 15.1668 16.625Z" fill="#1B1B1C"/>
<path d="M13.5 18.2917C13.1583 18.2917 12.875 18.0084 12.875 17.6667V14.3334C12.875 13.9917 13.1583 13.7084 13.5 13.7084C13.8417 13.7084 14.125 13.9917 14.125 14.3334V17.6667C14.125 18.0084 13.8417 18.2917 13.5 18.2917Z" fill="#1B1B1C"/>
</svg>
