<svg width="22" height="22" viewBox="0 0 22 22" fill="none" xmlns="http://www.w3.org/2000/svg">
<path d="M7.63564 11.9932L7.63569 11.9934L7.6464 11.9886C7.7117 11.9596 7.78932 11.9495 7.87695 11.967L7.88486 11.9686L7.89281 11.9699C7.89388 11.9701 7.90144 11.9714 7.9164 11.9789L7.94818 11.9948L7.98189 12.006C7.98758 12.0079 7.99809 12.0122 8.01342 12.0213L8.09128 12.0836C8.09175 12.0841 8.0922 12.0846 8.09266 12.0852L8.11996 12.1168C8.12419 12.1218 8.12701 12.1252 8.12883 12.1274L8.12986 12.1292L8.13646 12.1391C8.15194 12.1623 8.15824 12.1775 8.16067 12.1848L8.17191 12.2185L8.1878 12.2503C8.19344 12.2616 8.1956 12.2687 8.19639 12.2719C8.20644 12.3423 8.20833 12.3556 8.20833 12.3751C8.20833 12.4732 8.16588 12.5856 8.08867 12.6721C8.00225 12.7493 7.8898 12.7917 7.79167 12.7917C7.74832 12.7917 7.69446 12.7814 7.63564 12.7569C7.58687 12.7365 7.54031 12.7087 7.49527 12.6715C7.45798 12.6264 7.43018 12.5798 7.40986 12.5311C7.38535 12.4723 7.375 12.4184 7.375 12.3751C7.375 12.2785 7.41609 12.1681 7.49095 12.0823C7.53733 12.0431 7.58531 12.0142 7.63564 11.9932ZM10.631 12.5653L10.6198 12.5316L10.6039 12.4998C10.5982 12.4885 10.5961 12.4814 10.5953 12.4782C10.5852 12.4078 10.5833 12.3944 10.5833 12.375C10.5833 12.3317 10.5937 12.2778 10.6182 12.219C10.6399 12.1669 10.6702 12.1173 10.7115 12.0693C10.8277 11.9607 11.0142 11.9303 11.1453 11.9886L11.1569 11.9938L11.1688 11.9984C11.2108 12.0145 11.2479 12.0365 11.3001 12.0815C11.3753 12.1675 11.4167 12.2782 11.4167 12.375C11.4167 12.3944 11.4148 12.4078 11.4047 12.4782C11.4039 12.4814 11.4018 12.4885 11.3961 12.4998L11.3802 12.5316L11.369 12.5653C11.3671 12.571 11.3629 12.5815 11.3538 12.5968L11.2885 12.6784C11.2422 12.7169 11.2076 12.7368 11.1689 12.7517L11.1688 12.7515L11.156 12.7568C11.0972 12.7814 11.0434 12.7917 11 12.7917C10.906 12.7917 10.799 12.7528 10.7142 12.6817L10.6462 12.5968C10.6371 12.5814 10.6329 12.5709 10.631 12.5653ZM7.41499 15.7522L7.41517 15.7522L7.40986 15.7394C7.38535 15.6806 7.375 15.6267 7.375 15.5834C7.375 15.4868 7.41609 15.3764 7.49095 15.2906C7.53734 15.2515 7.58531 15.2225 7.63563 15.2016L7.63565 15.2016L7.64178 15.199C7.7833 15.1378 7.95998 15.1689 8.07521 15.273C8.0816 15.2806 8.08752 15.2875 8.09266 15.2935L8.11996 15.3251C8.12419 15.3301 8.12701 15.3335 8.12883 15.3358L8.12986 15.3375L8.13646 15.3474C8.15194 15.3706 8.15824 15.3858 8.16067 15.3931L8.17191 15.4269L8.1878 15.4586C8.19143 15.4659 8.19271 15.4696 8.19317 15.4711C8.19359 15.4724 8.1943 15.4748 8.19504 15.4799L8.1949 15.4799L8.19681 15.4914C8.20075 15.515 8.20383 15.5356 8.2059 15.5536C8.20691 15.5623 8.20755 15.5694 8.20793 15.5749L8.20828 15.5812C8.20833 15.5827 8.20833 15.5834 8.20833 15.5834C8.20833 15.6815 8.16588 15.794 8.08867 15.8804C8.00225 15.9576 7.8898 16 7.79167 16C7.74832 16 7.69446 15.9897 7.63563 15.9652C7.58652 15.9447 7.53964 15.9167 7.4943 15.879C7.45182 15.8291 7.43065 15.7929 7.41499 15.7522ZM7.33333 4.77087C7.23364 4.77087 7.14583 4.68306 7.14583 4.58337V4.39825C7.20725 4.39667 7.26974 4.39587 7.33333 4.39587H7.52083V4.58337C7.52083 4.68306 7.43302 4.77087 7.33333 4.77087ZM3.9375 8.14501H18.0625V8.52001H3.9375V8.14501ZM19.0625 15.5834V9.4885C19.1977 9.45653 19.3242 9.40121 19.4375 9.32711V15.5834C19.4375 17.1614 18.9853 18.3379 18.2032 19.1199C17.4212 19.902 16.2447 20.3542 14.6667 20.3542H7.33333C5.75533 20.3542 4.57883 19.902 3.79678 19.1199C3.01473 18.3379 2.5625 17.1614 2.5625 15.5834V9.32711C2.67581 9.40121 2.80233 9.45653 2.9375 9.4885V15.5834C2.9375 16.9677 3.27388 18.0931 4.04874 18.868C4.8236 19.6428 5.94901 19.9792 7.33333 19.9792H14.6667C16.051 19.9792 17.1764 19.6428 17.9513 18.868C18.7261 18.0931 19.0625 16.9677 19.0625 15.5834ZM19.424 7.3292C19.3073 7.25513 19.1771 7.2008 19.0382 7.17104C18.9485 6.06915 18.6068 5.16267 17.9513 4.50711C17.4118 3.96767 16.7025 3.64075 15.8542 3.49189V3.11685C16.8496 3.28832 17.6317 3.68368 18.2032 4.25516C18.9069 4.9588 19.3435 5.98177 19.424 7.3292ZM14.8542 3.02304V3.39798C14.7922 3.39657 14.7297 3.39587 14.6667 3.39587H14.4792V3.02087H14.6667C14.7298 3.02087 14.7923 3.0216 14.8542 3.02304ZM14.4792 4.39587H14.6667C14.7303 4.39587 14.7928 4.39667 14.8542 4.39825V4.58337C14.8542 4.68306 14.7664 4.77087 14.6667 4.77087C14.567 4.77087 14.4792 4.68306 14.4792 4.58337V4.39587ZM13.4792 3.02087V3.39587H8.52083V3.02087H13.4792ZM7.52083 3.39587H7.33333C7.27029 3.39587 7.20779 3.39657 7.14583 3.39798V3.02304C7.20769 3.0216 7.27019 3.02087 7.33333 3.02087H7.52083V3.39587ZM7.52083 2.02087H7.33333C7.27044 2.02087 7.20794 2.02152 7.14583 2.02281V1.83337C7.14583 1.73368 7.23364 1.64587 7.33333 1.64587C7.43302 1.64587 7.52083 1.73368 7.52083 1.83337V2.02087ZM14.6667 2.02087H14.4792V1.83337C14.4792 1.73368 14.567 1.64587 14.6667 1.64587C14.7664 1.64587 14.8542 1.73368 14.8542 1.83337V2.02281C14.7921 2.02152 14.7296 2.02087 14.6667 2.02087ZM2.96179 7.17105C2.82287 7.2008 2.69267 7.25513 2.57601 7.3292C2.65649 5.98177 3.09314 4.9588 3.79678 4.25516C4.36826 3.68368 5.15035 3.28832 6.14583 3.11685V3.49189C5.29752 3.64075 4.58818 3.96767 4.04874 4.50711C3.39318 5.16267 3.05147 6.06915 2.96179 7.17105Z" fill="#434344" stroke="#434344"/>
</svg>
