<svg width="157" height="32" viewBox="0 0 157 32" fill="none" xmlns="http://www.w3.org/2000/svg">
<g clip-path="url(#clip0_5317_9926)">
<path d="M9.35578 15.8798C9.28406 17.1595 10.2556 18.2597 11.5206 18.3329C11.5652 18.3352 11.6094 18.3367 11.653 18.3367C12.8699 18.3367 13.8776 17.3737 13.947 16.1436C14.0189 14.8641 13.048 13.7638 11.782 13.6911C10.5087 13.616 9.42787 14.6058 9.35578 15.8798Z" fill="white"/>
<path d="M0.785011 15.286C0.375554 15.2623 0.0239984 15.5791 0.00126481 15.9935C-0.022473 16.4074 0.290776 16.763 0.700356 16.7865C1.11019 16.81 1.46162 16.493 1.48511 16.0791C1.50784 15.6642 1.19484 15.3095 0.785011 15.286Z" fill="white"/>
<path d="M9.21017 2.39284C9.57641 2.2063 9.72425 1.75437 9.53949 1.38357C9.35435 1.01341 8.90785 0.863949 8.54084 1.051C8.17472 1.23754 8.02727 1.68948 8.21202 2.05989C8.39678 2.43068 8.84329 2.57938 9.21017 2.39284Z" fill="white"/>
<path d="M11.5426 6.50497C12.1094 6.21659 12.3371 5.5183 12.0516 4.94573C11.7661 4.37316 11.0753 4.14269 10.5089 4.43107C9.94255 4.71957 9.71446 5.41786 10.0002 5.99056C10.2857 6.56338 10.9761 6.79398 11.5426 6.50497Z" fill="white"/>
<path d="M3.69443 9.33245C4.13152 9.62223 4.71782 9.49919 5.00444 9.05715C5.29068 8.61575 5.16885 8.02287 4.73201 7.73347C4.29467 7.44369 3.70875 7.567 3.42213 8.00877C3.13551 8.4503 3.25772 9.04319 3.69443 9.33245Z" fill="white"/>
<path d="M5.0915 14.8674C4.45847 14.8308 3.91588 15.3204 3.87933 15.9607C3.84328 16.6014 4.32772 17.1496 4.96087 17.1865C5.5944 17.2228 6.13749 16.7332 6.17329 16.0928C6.20921 15.4522 5.72502 14.9035 5.0915 14.8674Z" fill="white"/>
<path d="M3.81995 22.6702C3.3536 22.9077 3.16608 23.4831 3.40132 23.9546C3.6362 24.4263 4.20529 24.6156 4.67139 24.3782C5.13787 24.1401 5.32564 23.5653 5.09027 23.0933C4.8554 22.6221 4.28681 22.4321 3.81995 22.6702Z" fill="white"/>
<path d="M8.28177 12.4686C8.906 12.8825 9.74388 12.7064 10.1527 12.075C10.5622 11.4446 10.388 10.5975 9.76385 10.1841C9.13974 9.7699 8.30224 9.94629 7.89304 10.5768C7.48345 11.2081 7.65778 12.0549 8.28177 12.4686Z" fill="white"/>
<path d="M22.4392 6.41261C22.9697 6.76423 23.6816 6.61439 24.0294 6.07788C24.3774 5.542 24.2297 4.82213 23.699 4.47013C23.1689 4.11826 22.4565 4.26772 22.1087 4.80461C21.7607 5.34048 21.909 6.06074 22.4392 6.41261Z" fill="white"/>
<path d="M24.796 2.31406C25.1387 2.54173 25.5999 2.44459 25.825 2.0978C26.0497 1.75063 25.954 1.28498 25.6109 1.05729C25.2681 0.829479 24.8073 0.926748 24.5817 1.27342C24.3565 1.62072 24.4527 2.08624 24.796 2.31406Z" fill="white"/>
<path d="M22.6203 13.6673C21.3471 13.5925 20.2655 14.5821 20.1942 15.8556C20.1222 17.1355 21.0932 18.2358 22.3586 18.3087C22.4027 18.3111 22.4472 18.3124 22.491 18.3124C23.708 18.3124 24.7155 17.3495 24.7846 16.1203C24.8197 15.4999 24.6134 14.9032 24.2046 14.4405C23.7964 13.9768 23.2332 13.7024 22.6203 13.6673Z" fill="white"/>
<path d="M12.2979 12.3077C12.6908 13.0961 13.4779 13.5866 14.3527 13.5866C14.7083 13.5866 15.0658 13.5002 15.3856 13.3375C16.5177 12.7606 16.9746 11.36 16.4042 10.2154C16.0108 9.4263 15.2239 8.93652 14.3494 8.93652C13.9938 8.93652 13.6363 9.02287 13.3165 9.18516C12.1845 9.76204 11.7275 11.1624 12.2979 12.3077Z" fill="white"/>
<path d="M30.3212 9.32996C30.7873 9.09224 30.9755 8.51726 30.7402 8.04514C30.5048 7.57339 29.9362 7.38406 29.4698 7.62177C29.0032 7.85923 28.8154 8.43447 29.0508 8.90609C29.2861 9.37758 29.8544 9.56716 30.3212 9.32996Z" fill="white"/>
<path d="M24.4898 10.0705C23.8229 10.4099 23.5553 11.2315 23.8909 11.9053C24.2268 12.5792 25.0392 12.8498 25.7058 12.5106C26.3721 12.1709 26.6404 11.3493 26.3048 10.6754C25.9688 10.0018 25.156 9.73054 24.4898 10.0705Z" fill="white"/>
<path d="M16.9843 1.96365C17.5058 1.99362 17.9527 1.5907 17.9825 1.06295C18.012 0.535839 17.6133 0.0837837 17.0918 0.0539365C16.5701 0.0239654 16.123 0.427146 16.0933 0.954637C16.0639 1.48188 16.4625 1.93369 16.9843 1.96365Z" fill="white"/>
<path d="M16.9735 7.98087C17.7186 8.02367 18.3571 7.44754 18.3996 6.69414C18.4419 5.94075 17.8721 5.29478 17.1266 5.25224C16.3819 5.20945 15.7435 5.78532 15.7009 6.53897C15.6586 7.29211 16.2285 7.9377 16.9735 7.98087Z" fill="white"/>
<path d="M9.6507 21.9297C10.3175 21.59 10.5855 20.7684 10.2501 20.0948C9.91396 19.4211 9.1012 19.1496 8.43502 19.4897C7.76858 19.8291 7.50043 20.6501 7.83616 21.3242C8.17213 21.9979 8.98439 22.2689 9.6507 21.9297Z" fill="white"/>
<path d="M17.8472 9.97448C17.1519 11.0463 17.4486 12.49 18.5087 13.193C18.8846 13.4423 19.3198 13.5741 19.7677 13.5741C20.5468 13.5741 21.2655 13.1817 21.6925 12.5242C22.3875 11.4521 22.0907 10.0079 21.0306 9.30565C20.6547 9.05638 20.2196 8.92432 19.7717 8.92432C18.9928 8.92432 18.2737 9.31695 17.8472 9.97448Z" fill="white"/>
<path d="M21.8438 19.6926C21.4506 18.9032 20.6631 18.4133 19.789 18.4133C19.4331 18.4133 19.0755 18.499 18.7557 18.6623C18.2075 18.9417 17.7998 19.4203 17.6075 20.0104C17.4147 20.5997 17.4608 21.2296 17.7376 21.7845C18.1305 22.5732 18.9177 23.0634 19.7915 23.0634C20.1479 23.0634 20.5049 22.9774 20.8253 22.8143C21.9574 22.2378 22.4143 20.8369 21.8438 19.6926Z" fill="white"/>
<path d="M25.859 19.5311C25.2354 19.1177 24.3972 19.2939 23.988 19.9243C23.5786 20.5553 23.7533 21.4026 24.3771 21.8162C25.0013 22.2297 25.8387 22.054 26.2481 21.4226C26.6575 20.792 26.4836 19.9448 25.859 19.5311Z" fill="white"/>
<path d="M30.2612 16.0393C30.2976 15.3989 29.8129 14.8499 29.1792 14.8133C28.5461 14.777 28.0035 15.2664 27.9672 15.9074C27.9309 16.5474 28.4154 17.0962 29.0492 17.1328C29.6822 17.1694 30.2254 16.6791 30.2612 16.0393Z" fill="white"/>
<path d="M33.4407 15.2132C33.0304 15.19 32.6797 15.5064 32.656 15.9209C32.6328 16.3351 32.946 16.6906 33.3562 16.7139C33.7658 16.7374 34.117 16.4207 34.1402 16.0063C34.1639 15.5918 33.8506 15.2366 33.4407 15.2132Z" fill="white"/>
<path d="M30.4467 22.667C30.0095 22.3773 29.4228 22.5007 29.1371 22.9423C28.8505 23.3839 28.9723 23.977 29.4092 24.2666C29.846 24.5563 30.432 24.4331 30.7193 23.9911C31.0051 23.5491 30.8838 22.9568 30.4467 22.667Z" fill="white"/>
<path d="M9.34528 29.6859C9.00213 29.4581 8.54131 29.5551 8.31623 29.902C8.09103 30.2493 8.18674 30.7148 8.53013 30.9425C8.87327 31.1703 9.3341 31.0729 9.55879 30.7263C9.78425 30.3788 9.68842 29.9133 9.34528 29.6859Z" fill="white"/>
<path d="M24.9309 29.6071C24.5648 29.7932 24.4174 30.245 24.6022 30.6161C24.7866 30.9863 25.2334 31.1353 25.6004 30.9484C25.9665 30.7616 26.1145 30.3102 25.9296 29.9398C25.7449 29.5692 25.2978 29.4203 24.9309 29.6071Z" fill="white"/>
<path d="M16.2941 22.0249C16.6307 21.5057 16.7477 20.885 16.6226 20.2773C16.4974 19.6697 16.1458 19.1473 15.6322 18.8069C15.2563 18.5576 14.8207 18.4255 14.3727 18.4255C13.5944 18.4255 12.8749 18.8179 12.4484 19.4758C12.1117 19.9951 11.995 20.6159 12.1204 21.2236C12.2452 21.8313 12.5971 22.3537 13.1105 22.6941C13.4866 22.9434 13.9218 23.0749 14.3697 23.0749C15.1483 23.0751 15.8675 22.6826 16.2941 22.0249Z" fill="white"/>
<path d="M11.7015 25.5872C11.171 25.2354 10.4593 25.3852 10.1112 25.9213C9.7632 26.4578 9.91115 27.1775 10.4417 27.5295C10.9722 27.8811 11.6845 27.7315 12.0323 27.1951C12.3804 26.6585 12.2317 25.9389 11.7015 25.5872Z" fill="white"/>
<path d="M17.0599 30.0359C16.5384 30.0058 16.0914 30.4091 16.0616 30.9363C16.0319 31.4641 16.4304 31.9156 16.9523 31.946C17.4737 31.9757 17.9211 31.5725 17.9505 31.045C17.9799 30.5178 17.5814 30.0656 17.0599 30.0359Z" fill="white"/>
<path d="M17.0701 24.0189C16.3254 23.9764 15.6865 24.552 15.6443 25.3054C15.602 26.0587 16.1714 26.7045 16.9166 26.7471C17.6622 26.7902 18.3006 26.214 18.3427 25.4607C18.3855 24.7073 17.8155 24.0616 17.0701 24.0189Z" fill="white"/>
<path d="M22.5978 25.4943C22.0318 25.7833 21.8038 26.4811 22.0897 27.0542C22.3747 27.6272 23.0655 27.8569 23.632 27.5684C24.1988 27.2801 24.4261 26.5818 24.141 26.0089C23.8555 25.4361 23.1651 25.2058 22.5978 25.4943Z" fill="white"/>
<path d="M47.9615 10.5092C50.187 10.5092 51.7453 11.7468 51.7453 14.0422H54.6611C54.6611 10.0139 51.7228 8.07837 47.9169 8.07837C43.2426 8.07837 40.5269 10.6441 40.5269 16.0674C40.5269 21.6262 43.2426 24.0565 47.9169 24.0565C51.7678 24.0565 54.6611 22.1661 54.6611 18.1378H51.8566C51.8566 20.3882 50.3208 21.6262 47.9615 21.6262C44.8672 21.6262 43.443 19.893 43.443 16.2926V15.8424C43.443 12.3095 44.8897 10.5092 47.9615 10.5092Z" fill="white"/>
<path d="M62.3697 8.34863L56.4263 23.7865H59.3646L60.5886 20.4335H67.5784L68.8245 23.7865H71.8963L65.9533 8.34863H62.3697ZM61.4792 18.003L63.0375 13.772C63.349 12.9395 63.9055 11.1389 64.0168 10.8241H64.1281C64.239 11.139 64.796 12.962 65.1074 13.772L66.6653 18.003H61.4792Z" fill="white"/>
<path d="M87.7928 13.0293C87.7928 10.1715 86.1682 8.34851 82.807 8.34851H74.7495V23.7864H77.5986V17.8225H82.3396L85.233 23.7864H88.3497L85.0775 17.3728C86.8807 16.6525 87.7928 15.1225 87.7928 13.0293ZM82.5844 15.3922H77.5986V10.8016H82.5844C84.1203 10.8016 84.9216 11.6341 84.9216 13.0293C84.9216 14.4924 84.0536 15.3922 82.5844 15.3922Z" fill="white"/>
<path d="M97.7893 8.34863H91.6904V23.7865H97.7893C102.397 23.7865 105.202 21.3561 105.202 16.0676C105.202 10.7791 102.397 8.34863 97.7893 8.34863ZM102.286 16.2925C102.264 19.6683 100.683 21.3333 97.7893 21.3333H94.5396V10.8017H97.7893C100.683 10.8017 102.286 12.4671 102.286 15.8425V16.2925Z" fill="white"/>
<path d="M112.66 8.34863L106.717 23.7865H109.655L110.88 20.4335H117.869L119.116 23.7865H122.187L116.244 8.34863H112.66ZM111.77 18.003L113.328 13.772C113.64 12.9395 114.196 11.1389 114.308 10.8241H114.419C114.53 11.139 115.087 12.962 115.398 13.772L116.956 18.003H111.77Z" fill="white"/>
<path d="M135.213 17.5301C135.213 17.8227 135.257 18.6104 135.257 18.7457L135.146 18.7904C135.08 18.7006 134.634 17.9128 134.389 17.5528L127.756 8.34851H125.041V23.7864H127.779V14.5371C127.779 14.1547 127.734 13.4121 127.734 13.2996L127.845 13.2322C127.912 13.322 128.246 13.9749 128.602 14.4925L135.28 23.7866H137.951V8.34863H135.213L135.213 17.5301Z" fill="white"/>
<path d="M149.298 8.07849C144.513 8.07849 141.619 10.6442 141.619 16.0676C141.619 21.4909 144.513 24.0566 149.298 24.0566C154.084 24.0566 157 21.4909 157 16.0676C157 10.6442 154.084 8.07849 149.298 8.07849ZM154.084 16.3149C154.084 19.8484 152.415 21.6262 149.299 21.6262C146.205 21.6262 144.535 19.8483 144.535 16.3149V15.8424C144.535 12.3095 146.227 10.5092 149.299 10.5092C152.392 10.5092 154.084 12.3095 154.084 15.8424V16.3149Z" fill="white"/>
</g>
<defs>
<clipPath id="clip0_5317_9926">
<rect width="157" height="32" fill="white"/>
</clipPath>
</defs>
</svg>
