<svg width="18" height="18" viewBox="0 0 18 18" fill="none" xmlns="http://www.w3.org/2000/svg">
<g clip-path="url(#clip0_5722_2623)">
<path d="M2.25 9C2.25 9.88642 2.42459 10.7642 2.76381 11.5831C3.10303 12.4021 3.60023 13.1462 4.22703 13.773C4.85382 14.3998 5.59794 14.897 6.41689 15.2362C7.23583 15.5754 8.11358 15.75 9 15.75C9.88642 15.75 10.7642 15.5754 11.5831 15.2362C12.4021 14.897 13.1462 14.3998 13.773 13.773C14.3998 13.1462 14.897 12.4021 15.2362 11.5831C15.5754 10.7642 15.75 9.88642 15.75 9C15.75 8.11358 15.5754 7.23583 15.2362 6.41689C14.897 5.59794 14.3998 4.85382 13.773 4.22703C13.1462 3.60023 12.4021 3.10303 11.5831 2.76381C10.7642 2.42459 9.88642 2.25 9 2.25C8.11358 2.25 7.23583 2.42459 6.41689 2.76381C5.59794 3.10303 4.85382 3.60023 4.22703 4.22703C3.60023 4.85382 3.10303 5.59794 2.76381 6.41689C2.42459 7.23583 2.25 8.11358 2.25 9Z" stroke="#2767FC" stroke-width="1.5" stroke-linecap="round" stroke-linejoin="round"/>
<path d="M9 12.75V12.7575" stroke="#2767FC" stroke-width="1.5" stroke-linecap="round" stroke-linejoin="round"/>
<path d="M9 10.125C8.98619 9.88153 9.05187 9.64017 9.18714 9.43726C9.32241 9.23436 9.51995 9.0809 9.75 9C10.0319 8.8922 10.2849 8.72043 10.4892 8.49822C10.6934 8.27601 10.8433 8.00942 10.927 7.71944C11.0107 7.42947 11.0259 7.12402 10.9715 6.82715C10.9171 6.53028 10.7946 6.25009 10.6135 6.00864C10.4324 5.76719 10.1977 5.57107 9.92797 5.43572C9.65821 5.30037 9.36071 5.22948 9.05889 5.22865C8.75708 5.22781 8.45919 5.29704 8.18868 5.43089C7.91817 5.56474 7.68243 5.75956 7.5 6" stroke="#2767FC" stroke-width="1.5" stroke-linecap="round" stroke-linejoin="round"/>
</g>
<defs>
<clipPath id="clip0_5722_2623">
<rect width="18" height="18" fill="white"/>
</clipPath>
</defs>
</svg>
