<svg width="32" height="32" viewBox="0 0 32 32" fill="none" xmlns="http://www.w3.org/2000/svg">
<rect width="32" height="32" rx="16" fill="#E9ECF1"/>
<path d="M18.0832 13.7083H7.6665C7.32484 13.7083 7.0415 13.425 7.0415 13.0833C7.0415 12.7416 7.32484 12.4583 7.6665 12.4583H18.0832C18.4248 12.4583 18.7082 12.7416 18.7082 13.0833C18.7082 13.425 18.4248 13.7083 18.0832 13.7083Z" fill="#1B1B1C"/>
<path d="M12.6667 20.375H11C10.6583 20.375 10.375 20.0917 10.375 19.75C10.375 19.4083 10.6583 19.125 11 19.125H12.6667C13.0083 19.125 13.2917 19.4083 13.2917 19.75C13.2917 20.0917 13.0083 20.375 12.6667 20.375Z" fill="#1B1B1C"/>
<path d="M18.0833 20.375H14.75C14.4083 20.375 14.125 20.0917 14.125 19.75C14.125 19.4083 14.4083 19.125 14.75 19.125H18.0833C18.425 19.125 18.7083 19.4083 18.7083 19.75C18.7083 20.0917 18.425 20.375 18.0833 20.375Z" fill="#1B1B1C"/>
<path d="M20.6332 23.7084H11.3665C8.04984 23.7084 7.0415 22.7084 7.0415 19.425V12.575C7.0415 9.29169 8.04984 8.29169 11.3665 8.29169H18.0832C18.4248 8.29169 18.7082 8.57502 18.7082 8.91669C18.7082 9.25835 18.4248 9.54169 18.0832 9.54169H11.3665C8.74984 9.54169 8.2915 9.99169 8.2915 12.575V19.4167C8.2915 22 8.74984 22.45 11.3665 22.45H20.6248C23.2415 22.45 23.6998 22 23.6998 19.4167V17.6834C23.6998 17.3417 23.9832 17.0584 24.3248 17.0584C24.6665 17.0584 24.9498 17.3417 24.9498 17.6834V19.4167C24.9582 22.7084 23.9498 23.7084 20.6332 23.7084Z" fill="#1B1B1C"/>
<path d="M22.6665 14.5417C22.5832 14.5417 22.5082 14.525 22.4248 14.4917C22.1915 14.3917 22.0415 14.1667 22.0415 13.9167V8.91669C22.0415 8.57502 22.3248 8.29169 22.6665 8.29169C23.0082 8.29169 23.2915 8.57502 23.2915 8.91669V12.4084L23.8915 11.8084C24.1332 11.5667 24.5332 11.5667 24.7748 11.8084C25.0165 12.05 25.0165 12.45 24.7748 12.6917L23.1082 14.3584C22.9915 14.475 22.8332 14.5417 22.6665 14.5417Z" fill="#1B1B1C"/>
<path d="M22.6665 14.5417C22.5082 14.5417 22.3499 14.4833 22.2249 14.3583L20.5582 12.6917C20.3165 12.45 20.3165 12.05 20.5582 11.8083C20.7999 11.5667 21.1999 11.5667 21.4415 11.8083L23.1082 13.475C23.3499 13.7167 23.3499 14.1167 23.1082 14.3583C22.9832 14.4833 22.8249 14.5417 22.6665 14.5417Z" fill="#1B1B1C"/>
</svg>
