<svg width="24" height="24" viewBox="0 0 24 24" fill="none" xmlns="http://www.w3.org/2000/svg">
<path d="M12.0001 22.75C6.80008 22.75 2.58008 18.52 2.58008 13.33C2.58008 8.14002 6.80008 3.90002 12.0001 3.90002C13.0701 3.90002 14.1101 4.05002 15.1101 4.36002C15.5101 4.48002 15.7301 4.90002 15.6101 5.30002C15.4901 5.70002 15.0701 5.92002 14.6701 5.80002C13.8201 5.54002 12.9201 5.40002 12.0001 5.40002C7.63008 5.40002 4.08008 8.95002 4.08008 13.32C4.08008 17.69 7.63008 21.24 12.0001 21.24C16.3701 21.24 19.9201 17.69 19.9201 13.32C19.9201 11.74 19.4601 10.22 18.5901 8.92002C18.3601 8.58002 18.4501 8.11002 18.8001 7.88002C19.1401 7.65002 19.6101 7.74002 19.8401 8.09002C20.8801 9.64002 21.4301 11.45 21.4301 13.33C21.4201 18.52 17.2001 22.75 12.0001 22.75Z" fill="#FAFAFA"/>
<path d="M16.13 6.06996C15.92 6.06996 15.71 5.97996 15.56 5.80996L12.67 2.48996C12.4 2.17996 12.43 1.69996 12.74 1.42996C13.05 1.15996 13.53 1.18996 13.8 1.49996L16.69 4.81996C16.96 5.12996 16.93 5.60996 16.62 5.87996C16.49 6.00996 16.31 6.06996 16.13 6.06996Z" fill="#FAFAFA"/>
<path d="M12.7602 8.52996C12.5302 8.52996 12.3002 8.41996 12.1502 8.21996C11.9102 7.88996 11.9802 7.41996 12.3102 7.16996L15.6802 4.70996C16.0102 4.45996 16.4802 4.53996 16.7302 4.86996C16.9802 5.19996 16.9002 5.66996 16.5702 5.91996L13.2002 8.38996C13.0702 8.48996 12.9202 8.52996 12.7602 8.52996Z" fill="#FAFAFA"/>
</svg>
