<svg width="22" height="22" viewBox="0 0 22 22" fill="none" xmlns="http://www.w3.org/2000/svg">
<path d="M10.5416 19.9375C5.36242 19.9375 1.14575 15.7209 1.14575 10.5417C1.14575 5.36254 5.36242 1.14587 10.5416 1.14587C15.7208 1.14587 19.9374 5.36254 19.9374 10.5417C19.9374 15.7209 15.7208 19.9375 10.5416 19.9375ZM10.5416 2.52087C6.11409 2.52087 2.52075 6.12337 2.52075 10.5417C2.52075 14.96 6.11409 18.5625 10.5416 18.5625C14.9691 18.5625 18.5624 14.96 18.5624 10.5417C18.5624 6.12337 14.9691 2.52087 10.5416 2.52087Z" fill="#222325"/>
<path d="M20.1667 20.8541C19.9926 20.8541 19.8184 20.7899 19.6809 20.6524L17.8476 18.8191C17.5817 18.5533 17.5817 18.1133 17.8476 17.8474C18.1134 17.5816 18.5534 17.5816 18.8192 17.8474L20.6526 19.6808C20.9184 19.9466 20.9184 20.3866 20.6526 20.6524C20.5151 20.7899 20.3409 20.8541 20.1667 20.8541Z" fill="#222325"/>
</svg>
